<svg width="17" height="17" viewBox="0 0 17 17" fill="none" xmlns="http://www.w3.org/2000/svg">
<path fill-rule="evenodd" clip-rule="evenodd" d="M8.20461 0.0593262C3.67384 0.0593262 0 3.82568 0 8.47277C0 12.1892 2.35077 15.3425 5.61179 16.4551C6.02205 16.5324 6.17179 16.2726 6.17179 16.0497C6.17179 15.8499 6.16461 15.3209 6.1605 14.6189C3.87794 15.1274 3.39641 13.4911 3.39641 13.4911C3.02359 12.5194 2.48564 12.2607 2.48564 12.2607C1.74052 11.7386 2.54205 11.7491 2.54205 11.7491C3.36512 11.8085 3.79845 12.6161 3.79845 12.6161C4.53076 13.9017 5.71898 13.5305 6.18667 13.3149C6.26103 12.7713 6.47333 12.4006 6.70769 12.1903C4.88564 11.9778 2.97025 11.2564 2.97025 8.03268C2.97025 7.1141 3.28975 6.36324 3.81488 5.77486C3.73026 5.56191 3.44872 4.70695 3.89488 3.54859C3.89488 3.54859 4.5841 3.32249 6.15128 4.41091C6.80615 4.22425 7.5077 4.13118 8.20565 4.1275C8.90258 4.13118 9.60462 4.22425 10.26 4.41091C11.8262 3.32249 12.5139 3.54859 12.5139 3.54859C12.9616 4.70695 12.68 5.56191 12.5954 5.77486C13.1215 6.36324 13.439 7.1141 13.439 8.03268C13.439 11.2643 11.5205 11.9757 9.69282 12.1839C9.98718 12.4437 10.2498 12.9569 10.2498 13.7419C10.2498 14.8666 10.2395 15.7736 10.2395 16.0497C10.2395 16.2747 10.3872 16.5366 10.8036 16.454C14.0616 15.3393 16.4103 12.1881 16.4103 8.47277C16.4103 3.82568 12.7364 0.0593262 8.20461 0.0593262Z" fill="#343D65"/>
</svg>
