<svg width="20" height="20" viewBox="0 0 20 20" fill="none" xmlns="http://www.w3.org/2000/svg">
<path fill-rule="evenodd" clip-rule="evenodd" d="M13.9413 13.832C14.1978 14.4376 14.4547 15.0429 14.7105 15.6488C15.0014 16.3376 15.2882 17.0282 15.5834 17.7152C15.6851 17.9521 15.7037 18.1792 15.5229 18.3768C15.347 18.5691 15.1234 18.5772 14.8858 18.4933C14.3189 18.2931 13.7488 18.1022 13.1835 17.8977C13.0448 17.8476 12.9879 17.8839 12.9296 18.0113C12.6696 18.5791 12.4014 19.1432 12.1321 19.7067C12.0246 19.9315 11.8358 20.0157 11.5919 19.9977C11.3753 19.9817 11.2417 19.86 11.1619 19.6701C10.7416 18.6697 10.3232 17.6685 9.90358 16.6678C9.88425 16.6217 9.85992 16.5776 9.82542 16.5069C9.68108 16.8474 9.54485 17.1651 9.41149 17.484C9.10784 18.2101 8.80666 18.9372 8.50214 19.6629C8.41106 19.88 8.25273 19.9971 8.00717 19.9995C7.76027 20.0019 7.61028 19.882 7.50981 19.6683C7.24415 19.103 6.97193 18.5408 6.70745 17.975C6.65858 17.8704 6.6087 17.8544 6.49914 17.8933C5.90086 18.1057 5.29961 18.3099 4.69827 18.5134C4.4882 18.5846 4.28708 18.5473 4.14017 18.3837C3.9931 18.2199 3.95052 18.0222 4.04278 17.8032C4.53389 16.6375 5.02077 15.47 5.51006 14.3035C5.53388 14.2467 5.56663 14.1936 5.59519 14.1388C5.67028 14.1702 5.74061 14.2083 5.7887 14.2775C5.54672 14.8644 5.30637 15.4521 5.06227 16.0381C4.81144 16.6402 4.55626 17.2405 4.30455 17.8422C4.24967 17.9734 4.23098 18.1077 4.34254 18.22C4.44534 18.3234 4.5641 18.2924 4.68667 18.2495C5.31236 18.0301 5.94098 17.8191 6.56497 17.5951C6.72438 17.5379 6.80214 17.5678 6.87409 17.7257C7.15169 18.335 7.44357 18.9378 7.72938 19.5433C7.78588 19.663 7.86591 19.7561 8.00751 19.7541C8.1406 19.7522 8.22302 19.6666 8.27189 19.5498C8.71903 18.4814 9.16121 17.4109 9.61579 16.3457C9.68662 16.1796 9.67476 16.0516 9.57574 15.9141C9.52984 15.9415 9.52231 15.9812 9.5074 16.0167C9.06506 17.0689 8.62278 18.1211 8.17963 19.173C8.15016 19.2429 8.14117 19.342 8.04161 19.3441C7.936 19.3463 7.91708 19.2436 7.88051 19.1709C7.57686 18.5671 7.27176 17.964 6.97487 17.3569C6.92174 17.2482 6.87129 17.2228 6.75672 17.2628C6.42807 17.3778 6.09552 17.4817 5.76406 17.5886C5.42722 17.6971 5.08965 17.8033 4.75291 17.9122C4.69671 17.9304 4.64244 17.9465 4.59722 17.8958C4.55825 17.8521 4.56991 17.8022 4.59032 17.7531C4.60759 17.7116 4.62189 17.6688 4.63926 17.6273C5.0935 16.5435 5.54797 15.4598 6.00238 14.376C6.382 14.476 6.77095 14.4659 7.15496 14.442C7.66267 14.4104 8.09609 14.5722 8.50876 14.8485C8.84343 15.0725 9.18791 15.2887 9.61295 15.2976C10.1983 16.6979 10.7846 18.0979 11.3679 19.4991C11.423 19.6316 11.4873 19.7495 11.646 19.7537C11.8046 19.758 11.8803 19.6443 11.9407 19.5154C12.2109 18.9399 12.4792 18.3636 12.7556 17.7911C12.8846 17.5239 12.821 17.5068 13.1661 17.6258C13.7716 17.8346 14.3774 18.0421 14.9816 18.2547C15.1144 18.3014 15.2333 18.3111 15.3358 18.1994C15.4397 18.0863 15.41 17.9676 15.3563 17.8402C14.824 16.576 14.2947 15.3106 13.7645 14.0455C13.8188 13.9705 13.8628 13.8869 13.9413 13.832Z" fill="#343D65"/>
<mask id="mask0_705_11362" style="mask-type:alpha" maskUnits="userSpaceOnUse" x="2" y="0" width="16" height="16">
<path d="M2 0H17.28V15.3027H2V0Z" fill="white"/>
</mask>
<g mask="url(#mask0_705_11362)">
<path fill-rule="evenodd" clip-rule="evenodd" d="M7.12447 1.15467C6.85107 1.15467 6.66489 1.14713 6.47956 1.1563C6.14228 1.17301 5.86114 1.29884 5.6601 1.58656C5.50457 1.80914 5.37595 2.0464 5.25395 2.2871C5.03489 2.7194 4.71262 3.04224 4.27991 3.25984C4.0891 3.35581 3.90546 3.46605 3.71952 3.57152C3.3306 3.79206 3.14804 4.12999 3.15189 4.57412C3.15436 4.86158 3.15193 5.14907 3.15639 5.43645C3.16136 5.75483 3.08005 6.04884 2.91888 6.32145C2.78998 6.53946 2.66139 6.75777 2.52777 6.97291C2.25159 7.41755 2.23764 7.86064 2.52371 8.30657C2.59056 8.41072 2.64453 8.5237 2.71661 8.62383C3.05608 9.0955 3.20752 9.61669 3.15777 10.1984C3.14243 10.3775 3.15105 10.559 3.1526 10.7392C3.15585 11.1237 3.28856 11.444 3.62293 11.6582C3.75067 11.7401 3.87724 11.828 4.01492 11.8894C4.63185 12.1644 5.0941 12.5918 5.36929 13.2159C5.42579 13.3441 5.50356 13.463 5.57382 13.5849C5.79399 13.9669 6.13086 14.143 6.56557 14.1428C6.86401 14.1427 7.16249 14.142 7.46093 14.1391C7.77935 14.136 8.0709 14.2271 8.34265 14.3872C8.56083 14.5157 8.77874 14.6448 8.99364 14.7787C9.42287 15.0461 9.85045 15.0494 10.2806 14.7822C10.4431 14.6813 10.6107 14.5883 10.7708 14.4837C11.1394 14.243 11.5358 14.1125 11.9815 14.1372C12.223 14.1505 12.4656 14.1422 12.7078 14.143C13.1493 14.1443 13.4908 13.967 13.7116 13.5767C13.817 13.3905 13.9275 13.2069 14.0233 13.0159C14.2405 12.583 14.5587 12.2565 14.9935 12.04C15.1897 11.9423 15.3798 11.8315 15.5681 11.7191C15.8739 11.5369 16.079 11.2851 16.114 10.9146C16.1464 10.5711 16.124 10.2277 16.123 9.88439C16.122 9.53619 16.2089 9.21731 16.3886 8.92116C16.5201 8.70464 16.6486 8.48632 16.7792 8.26933C17.0212 7.86744 17.0334 7.46193 16.7962 7.05426C16.6914 6.87424 16.586 6.69438 16.473 6.51953C16.231 6.14518 16.0967 5.74407 16.1228 5.29161C16.1371 5.04441 16.1314 4.79572 16.128 4.54781C16.1227 4.17098 15.9922 3.85735 15.6662 3.64066C15.4453 3.49382 15.2132 3.36768 14.9779 3.24739C14.563 3.03524 14.2517 2.72326 14.0383 2.30872C13.9328 2.10367 13.818 1.90308 13.7013 1.70404C13.5197 1.39433 13.258 1.19716 12.8928 1.16374C12.7531 1.15095 12.6118 1.15569 12.4711 1.15318C12.1674 1.1477 11.8622 1.17832 11.5601 1.13708C11.1868 1.08614 10.8668 0.897458 10.5734 0.680768C9.9468 0.217891 9.34156 0.211396 8.71487 0.678603C8.22011 1.04744 7.66752 1.24813 7.12447 1.15467ZM5.78781 14.2775C5.73972 14.2083 5.66939 14.1702 5.5943 14.1388C5.27108 13.7584 5.07426 13.2996 4.81397 12.8802C4.65064 12.617 4.39971 12.457 4.1353 12.3128C3.87866 12.1728 3.61428 12.0457 3.37944 11.8682C3.03824 11.6102 2.86257 11.2659 2.84939 10.8402C2.84314 10.6375 2.83331 10.4329 2.85244 10.2318C2.9035 9.69524 2.75595 9.22143 2.45044 8.78447C2.33483 8.61909 2.23628 8.43978 2.1472 8.2583C1.94568 7.84789 1.95477 7.43379 2.1518 7.02178C2.26389 6.78727 2.40654 6.57078 2.54497 6.35223C2.75555 6.01982 2.8763 5.66718 2.85342 5.26732C2.83959 5.02567 2.8501 4.78273 2.84713 4.5404C2.84037 3.99434 3.08322 3.58999 3.54523 3.31281C3.72364 3.20579 3.90397 3.10049 4.09062 3.00916C4.50055 2.8086 4.80201 2.50772 5.00454 2.09717C5.14361 1.81516 5.28801 1.53444 5.49666 1.29282C5.75269 0.996332 6.08013 0.86167 6.46351 0.850643C6.6604 0.844994 6.85931 0.832613 7.05428 0.852808C7.60443 0.909703 8.08486 0.745985 8.52977 0.434649C8.67668 0.331885 8.83734 0.247455 8.99672 0.164276C9.42743 -0.0605662 9.85917 -0.0492682 10.292 0.165494C10.5146 0.275936 10.7229 0.409854 10.9307 0.543806C11.2676 0.760936 11.629 0.872325 12.0319 0.85477C12.2736 0.844216 12.516 0.851218 12.758 0.849087C13.3047 0.84425 13.7042 1.09429 13.9776 1.55812C14.089 1.74714 14.2002 1.937 14.2975 2.13347C14.4872 2.51658 14.7722 2.79744 15.1534 2.98805C15.3897 3.10624 15.6226 3.23194 15.8409 3.38233C16.2316 3.65145 16.4281 4.02411 16.4331 4.49775C16.435 4.68372 16.4472 4.87115 16.4293 5.05544C16.3765 5.59781 16.525 6.078 16.8363 6.51815C16.9334 6.65548 17.0138 6.8055 17.094 6.95393C17.361 7.44806 17.3343 7.93644 17.0543 8.41623C16.9153 8.65447 16.7738 8.89119 16.6328 9.12824C16.4911 9.36658 16.4263 9.62447 16.4294 9.90134C16.4327 10.1831 16.4294 10.465 16.4342 10.7468C16.4435 11.2933 16.2017 11.6985 15.7423 11.9782C15.5454 12.0981 15.3428 12.2092 15.1382 12.3156C14.8052 12.4889 14.5316 12.7204 14.3557 13.0591C14.2209 13.3186 14.0793 13.5745 13.9406 13.832C13.8619 13.8869 13.8179 13.9705 13.7636 14.0455C13.6922 14.0858 13.6378 14.145 13.5855 14.2065C13.284 14.4089 12.9476 14.4619 12.5922 14.4496C12.3396 14.4409 12.0864 14.4477 11.8335 14.4471C11.6576 14.4466 11.4881 14.4791 11.3272 14.5499C10.8269 14.7698 10.4069 15.1451 9.87427 15.3027C9.78728 15.2779 9.69952 15.2972 9.61206 15.2976C9.18702 15.2887 8.84254 15.0725 8.5079 14.8484C8.0952 14.5722 7.66178 14.4104 7.15407 14.442C6.77006 14.4659 6.38111 14.476 6.00146 14.376C5.93715 14.3281 5.86898 14.2887 5.78781 14.2775Z" fill="#343D65"/>
</g>
<path fill-rule="evenodd" clip-rule="evenodd" d="M11.7996 9.2407C11.9364 9.24479 12.0286 9.13144 11.9886 8.9912C11.7451 8.13797 11.4981 7.28575 11.2519 6.4333C11.2139 6.30198 11.1138 6.27543 10.999 6.30273C10.9052 6.32499 10.8805 6.41358 10.8561 6.49588C10.6982 7.02891 10.5401 7.56191 10.3818 8.09484C10.2954 8.38551 10.2051 8.67503 10.1235 8.96701C10.0899 9.08737 10.1155 9.19923 10.2548 9.234C10.3762 9.26431 10.4597 9.2155 10.4924 9.08466C10.5236 8.9595 10.5708 8.8383 10.6022 8.71318C10.6239 8.62689 10.6687 8.59601 10.7568 8.59831C10.9534 8.60342 11.1504 8.60331 11.3471 8.59838C11.4398 8.59608 11.4908 8.6207 11.5104 8.72093C11.5341 8.84165 11.576 8.95903 11.6133 9.07678C11.6421 9.16733 11.6878 9.24273 11.7996 9.2407ZM7.37739 7.77559C7.36407 7.91546 7.40453 8.04765 7.46988 8.17578C7.59516 8.42133 7.72 8.66725 7.83893 8.91594C7.93463 9.11615 8.07941 9.23495 8.30797 9.24276C8.54852 9.25102 8.69587 9.12498 8.79462 8.9204C8.92419 8.65192 9.05903 8.38591 9.18529 8.11591C9.29394 7.88359 9.2932 7.64732 9.18029 7.41531C9.03997 7.12694 8.90141 6.83762 8.7542 6.55281C8.57779 6.21157 8.08759 6.18701 7.89614 6.52142C7.71767 6.83319 7.57218 7.16401 7.41696 7.48878C7.37546 7.57564 7.36836 7.67333 7.37739 7.77559ZM12.8504 7.71778C12.8504 8.14592 12.8521 8.57409 12.8494 9.00223C12.8486 9.14169 12.898 9.23735 13.0472 9.23914C13.2175 9.24114 13.2434 9.11172 13.2462 8.98203C13.2514 8.73987 13.252 8.49744 13.246 8.25538C13.2434 8.1519 13.2781 8.11835 13.3811 8.12062C13.6455 8.12647 13.9102 8.12691 14.1747 8.12116C14.4894 8.11436 14.7285 7.87801 14.7381 7.56252C14.7453 7.32614 14.7458 7.08915 14.738 6.85278C14.7273 6.53095 14.479 6.29657 14.158 6.29569C13.7752 6.29461 13.3924 6.30023 13.0098 6.29265C12.8867 6.29018 12.8446 6.31974 12.8472 6.45028C12.8557 6.87263 12.8504 7.29526 12.8504 7.71778ZM4.6382 7.72302C4.6382 8.1399 4.63796 8.55677 4.6385 8.97368C4.63857 9.01853 4.63245 9.06721 4.64732 9.10743C4.68199 9.20109 4.75276 9.24983 4.85709 9.24023C4.9873 9.22825 5.02741 9.13212 5.03103 9.02736C5.03961 8.77979 5.04124 8.53154 5.03302 8.28396C5.02893 8.16107 5.05982 8.11449 5.19112 8.11957C5.44962 8.12965 5.70893 8.12721 5.96769 8.12089C6.27378 8.11341 6.51352 7.88031 6.52531 7.57415C6.53461 7.33226 6.53434 7.08949 6.52548 6.84757C6.51372 6.52656 6.26431 6.29637 5.94052 6.29563C5.55779 6.29478 5.17493 6.30124 4.7924 6.29221C4.66114 6.28913 4.6334 6.33311 4.63546 6.45549C4.64256 6.87788 4.6382 7.3005 4.6382 7.72302ZM7.12409 1.15473C7.66715 1.24819 8.21973 1.0475 8.71449 0.678622C9.34115 0.211416 9.94642 0.217944 10.573 0.680821C10.8664 0.897478 11.1864 1.08616 11.5597 1.13714C11.8618 1.17834 12.167 1.14776 12.4707 1.1532C12.6114 1.15574 12.7527 1.151 12.8924 1.16379C13.2577 1.19721 13.5194 1.39438 13.7009 1.7041C13.8176 1.90313 13.9324 2.10368 14.0379 2.30877C14.2513 2.72331 14.5626 3.03529 14.9775 3.24741C15.2128 3.36773 15.4449 3.49387 15.6658 3.64068C15.9918 3.8574 16.1223 4.17104 16.1276 4.54783C16.1311 4.79577 16.1368 5.04443 16.1224 5.29167C16.0963 5.74409 16.2306 6.1452 16.4726 6.51959C16.5856 6.6944 16.6911 6.87429 16.7958 7.05431C17.0329 7.46199 17.0208 7.86746 16.7789 8.26935C16.6482 8.48634 16.5197 8.70466 16.3883 8.92118C16.2085 9.21736 16.1216 9.53624 16.1226 9.88445C16.1236 10.2277 16.1461 10.5712 16.1136 10.9147C16.0786 11.2852 15.8735 11.5369 15.5678 11.7192C15.3794 11.8315 15.1893 11.9424 14.9931 12.0401C14.5584 12.2565 14.2401 12.583 14.0229 13.0159C13.9271 13.2069 13.8166 13.3906 13.7112 13.5767C13.4904 13.967 13.1489 14.1443 12.7074 14.143C12.4653 14.1423 12.2226 14.1506 11.9811 14.1372C11.5354 14.1126 11.139 14.243 10.7704 14.4838C10.6103 14.5883 10.4427 14.6813 10.2802 14.7823C9.85004 15.0495 9.4225 15.0461 8.99326 14.7787C8.77836 14.6449 8.56045 14.5158 8.34227 14.3872C8.07052 14.2272 7.77897 14.136 7.46052 14.1391C7.16211 14.1421 6.86363 14.1428 6.56519 14.1429C6.13048 14.143 5.79362 13.9669 5.57344 13.585C5.50318 13.4631 5.42542 13.3441 5.36891 13.216C5.09372 12.5919 4.63147 12.1645 4.01454 11.8895C3.87683 11.8281 3.7503 11.7401 3.62255 11.6582C3.28818 11.444 3.15547 11.1237 3.15223 10.7393C3.15067 10.559 3.14206 10.3776 3.1574 10.1985C3.20714 9.61675 3.05571 9.09555 2.71624 8.62388C2.64415 8.52372 2.59018 8.41078 2.52334 8.30659C2.23726 7.86069 2.25118 7.41761 2.52739 6.97293C2.66102 6.75783 2.78961 6.53951 2.9185 6.3215C3.07967 6.04886 3.16098 5.75485 3.15601 5.43651C3.15155 5.14912 3.15398 4.86163 3.15152 4.57418C3.14767 4.13004 3.33023 3.79212 3.71914 3.57154C3.90508 3.4661 4.08872 3.35583 4.2795 3.2599C4.71224 3.04229 5.03451 2.71942 5.25357 2.28716C5.37557 2.04642 5.50419 1.80919 5.65972 1.58658C5.86077 1.29886 6.14187 1.17303 6.47915 1.15635C6.66451 1.14718 6.85069 1.15473 7.12409 1.15473Z" fill="#FEFEFE"/>
<path fill-rule="evenodd" clip-rule="evenodd" d="M13.5862 14.2064C14.0021 15.202 14.418 16.1975 14.834 17.193C14.9055 17.3641 14.9791 17.5344 15.0476 17.7067C15.0717 17.767 15.1137 17.8335 15.0567 17.8965C14.9985 17.9608 14.9322 17.921 14.8691 17.9007C14.2171 17.6909 13.5637 17.4847 12.914 17.2679C12.7846 17.2247 12.7316 17.2524 12.6731 17.3725C12.3774 17.9798 12.0717 18.5821 11.7688 19.1859C11.7367 19.2498 11.7159 19.325 11.6197 19.3244C11.5196 19.3237 11.5069 19.241 11.4803 19.1779C10.9557 17.9294 10.4329 16.6801 9.91059 15.4306C9.89362 15.39 9.88663 15.3453 9.875 15.3025C10.4076 15.145 10.8276 14.7697 11.3278 14.5498C11.4887 14.4791 11.6583 14.4465 11.8342 14.447C12.0871 14.4477 12.3402 14.4408 12.5928 14.4495C12.9483 14.4618 13.2847 14.4088 13.5862 14.2064Z" fill="#343D65"/>
<path fill-rule="evenodd" clip-rule="evenodd" d="M5.02057 7.20298C5.02057 7.34356 5.0232 7.48418 5.01956 7.62466C5.01746 7.70584 5.03679 7.74934 5.13105 7.74765C5.39498 7.74298 5.65906 7.74674 5.92307 7.74559C6.06713 7.74495 6.14351 7.66302 6.14834 7.52623C6.15568 7.31843 6.15686 7.10999 6.14875 6.9023C6.14327 6.7605 6.0693 6.67404 5.913 6.6759C5.66024 6.67891 5.40735 6.68006 5.15467 6.67516C5.05031 6.6731 5.01513 6.71494 5.01932 6.8151C5.02469 6.94418 5.0206 7.07367 5.02057 7.20298ZM4.63956 7.72296C4.63956 7.3004 4.64389 6.87781 4.63683 6.45542C4.63473 6.33304 4.66251 6.28903 4.79377 6.29215C5.17626 6.30118 5.55916 6.29468 5.94189 6.29556C6.26568 6.29627 6.51509 6.52649 6.52681 6.8475C6.5357 7.08943 6.53597 7.3322 6.52668 7.57409C6.51489 7.88025 6.27514 8.11335 5.96903 8.12082C5.71029 8.12715 5.45098 8.12958 5.19245 8.1195C5.06119 8.11439 5.0303 8.16101 5.03439 8.2839C5.0426 8.53144 5.04098 8.77972 5.0324 9.02729C5.02878 9.13205 4.98867 9.22819 4.85845 9.24016C4.75413 9.24974 4.68336 9.20099 4.64869 9.10733C4.63382 9.06714 4.6399 9.01843 4.63983 8.97361C4.63933 8.55671 4.63956 8.13983 4.63956 7.72296Z" fill="#343D65"/>
<path fill-rule="evenodd" clip-rule="evenodd" d="M13.232 7.20991C13.232 7.3505 13.2357 7.49118 13.2307 7.63156C13.2275 7.72072 13.2631 7.7488 13.3493 7.74751C13.6077 7.74366 13.8661 7.74569 14.1245 7.74616C14.2766 7.74643 14.3559 7.66481 14.3604 7.51939C14.3667 7.31156 14.3689 7.10309 14.3595 6.8955C14.353 6.75214 14.2719 6.67299 14.1175 6.67563C13.8704 6.67982 13.6231 6.68077 13.3761 6.67492C13.2655 6.67228 13.2247 6.71236 13.2304 6.82203C13.237 6.95101 13.2319 7.0806 13.232 7.20991ZM12.8509 7.71775C12.8509 7.29522 12.8563 6.8726 12.8478 6.45025C12.8452 6.31974 12.8873 6.29018 13.0103 6.29262C13.393 6.30019 13.7758 6.29458 14.1585 6.29566C14.4795 6.29654 14.7279 6.53092 14.7385 6.85274C14.7463 7.08912 14.7459 7.32611 14.7387 7.56248C14.729 7.87798 14.49 8.11432 14.1752 8.12112C13.9108 8.12687 13.6461 8.12643 13.3817 8.12058C13.2787 8.11832 13.2439 8.15187 13.2465 8.25535C13.2525 8.49744 13.252 8.73984 13.2468 8.982C13.2439 9.11169 13.2181 9.24111 13.0478 9.23911C12.8985 9.23735 12.8492 9.14166 12.85 9.00219C12.8526 8.57405 12.8509 8.14588 12.8509 7.71775Z" fill="#343D65"/>
<path fill-rule="evenodd" clip-rule="evenodd" d="M8.87168 7.77113C8.86073 7.71647 8.86036 7.65673 8.83704 7.60799C8.70112 7.32392 8.56388 7.04029 8.41842 6.76102C8.35509 6.63941 8.25523 6.6406 8.19135 6.76474C8.05242 7.03467 7.92221 7.30917 7.79294 7.58394C7.7262 7.72581 7.74398 7.86953 7.81177 8.00704C7.93363 8.25427 8.0579 8.50032 8.18078 8.74709C8.20893 8.80358 8.23742 8.86375 8.31173 8.86044C8.37561 8.85763 8.4043 8.80544 8.43032 8.75334C8.55867 8.49677 8.68845 8.24091 8.81677 7.98434C8.84992 7.91807 8.86928 7.84778 8.87168 7.77113ZM7.37649 7.7756C7.3675 7.67334 7.3746 7.57565 7.4161 7.48879C7.57128 7.16406 7.7168 6.8332 7.89524 6.52146C8.08669 6.18702 8.57689 6.21158 8.7533 6.55282C8.90051 6.83763 9.03907 7.12698 9.17939 7.41532C9.2923 7.64733 9.29307 7.88361 9.18439 8.11592C9.05813 8.38592 8.92329 8.65193 8.79372 8.92041C8.69497 9.12499 8.54766 9.25103 8.30707 9.24277C8.07851 9.23496 7.93377 9.11616 7.83803 8.91598C7.71914 8.66726 7.5943 8.42134 7.46898 8.1758C7.40363 8.04766 7.36321 7.9155 7.37649 7.7756Z" fill="#343D65"/>
<path fill-rule="evenodd" clip-rule="evenodd" d="M11.0841 7.25155C11.0696 7.25189 11.0551 7.25219 11.0406 7.25253C10.9889 7.42805 10.9328 7.60246 10.8866 7.77941C10.8489 7.92395 10.7072 8.11777 10.8055 8.20051C10.9014 8.28122 11.1155 8.22016 11.2776 8.22368C11.3481 8.22524 11.3616 8.20169 11.3409 8.1333C11.2524 7.84029 11.1693 7.5456 11.0841 7.25155ZM11.8007 9.24049C11.6889 9.24263 11.6431 9.16723 11.6144 9.07671C11.577 8.95893 11.5352 8.84155 11.5115 8.72082C11.4918 8.6206 11.4408 8.59597 11.3481 8.59827C11.1514 8.60321 10.9545 8.60331 10.7578 8.59824C10.6698 8.59594 10.625 8.62682 10.6033 8.71308C10.5718 8.8382 10.5247 8.9594 10.4934 9.08456C10.4607 9.21543 10.3772 9.26421 10.2558 9.2339C10.1166 9.19916 10.091 9.0873 10.1246 8.96691C10.2061 8.67492 10.2965 8.3854 10.3828 8.09473C10.5412 7.5618 10.6992 7.02884 10.8572 6.49577C10.8815 6.41351 10.9063 6.32488 11.0001 6.30263C11.1149 6.27536 11.2149 6.30188 11.2529 6.43319C11.4992 7.28565 11.7461 8.13786 11.9896 8.99109C12.0296 9.13134 11.9375 9.24469 11.8007 9.24049Z" fill="#343D65"/>
<path fill-rule="evenodd" clip-rule="evenodd" d="M5.01919 7.20294C5.01922 7.07363 5.02328 6.94414 5.0179 6.81506C5.01375 6.7149 5.04893 6.67306 5.15329 6.67512C5.40597 6.68003 5.65883 6.67888 5.91158 6.67587C6.06792 6.67401 6.14186 6.76046 6.14737 6.90226C6.15545 7.10996 6.15426 7.31839 6.14693 7.52619C6.14213 7.66298 6.06575 7.74491 5.92168 7.74555C5.65768 7.7467 5.39357 7.74295 5.12966 7.74761C5.03538 7.7493 5.01604 7.7058 5.01814 7.62462C5.02182 7.48414 5.01919 7.34353 5.01919 7.20294Z" fill="#FEFEFE"/>
<path fill-rule="evenodd" clip-rule="evenodd" d="M13.2326 7.2098C13.2325 7.08048 13.2376 6.95089 13.231 6.82191C13.2253 6.71225 13.2661 6.67217 13.3767 6.6748C13.6237 6.68066 13.871 6.67971 14.1181 6.67551C14.2725 6.67288 14.3536 6.75203 14.3601 6.89538C14.3695 7.10298 14.3673 7.31145 14.361 7.51927C14.3566 7.66469 14.2772 7.74632 14.1251 7.74605C13.8667 7.74557 13.6083 7.74354 13.3499 7.7474C13.2637 7.74868 13.2281 7.72061 13.2313 7.63144C13.2363 7.49106 13.2326 7.35038 13.2326 7.2098Z" fill="#FEFEFE"/>
<path fill-rule="evenodd" clip-rule="evenodd" d="M8.87265 7.77107C8.87026 7.84773 8.85089 7.91802 8.81774 7.98428C8.68942 8.24085 8.55964 8.49671 8.43129 8.75328C8.40527 8.80538 8.37658 8.85757 8.3127 8.86038C8.23839 8.86369 8.2099 8.80352 8.18175 8.74703C8.05887 8.50027 7.9346 8.25421 7.81274 8.00698C7.74495 7.86948 7.72717 7.72575 7.79392 7.58388C7.92318 7.30911 8.05339 7.03461 8.19233 6.76468C8.2562 6.64054 8.35606 6.63935 8.41939 6.76096C8.56485 7.04023 8.70209 7.32386 8.83801 7.60793C8.86133 7.65667 8.8617 7.71641 8.87265 7.77107Z" fill="#FEFEFE"/>
<path fill-rule="evenodd" clip-rule="evenodd" d="M11.0842 7.25159C11.1693 7.54564 11.2524 7.84033 11.341 8.13333C11.3617 8.20173 11.3482 8.22527 11.2777 8.22372C11.1155 8.2202 10.9015 8.28126 10.8056 8.20055C10.7073 8.11781 10.849 7.92398 10.8867 7.77944C10.9329 7.6025 10.9889 7.42809 11.0407 7.25257C11.0552 7.25223 11.0697 7.25193 11.0842 7.25159Z" fill="#FEFEFE"/>
</svg>
