<svg width="17" height="16" viewBox="0 0 17 16" fill="none" xmlns="http://www.w3.org/2000/svg">
  <path d="M13.6484 9.89676L8.45849 1.12063C8.43181 1.08074 8.39178 1.04085 8.35176 1.01426C8.31174 0.987663 8.25837 0.974365 8.205 0.974365C8.15164 0.974365 8.09827 0.987663 8.05824 1.01426C8.01822 1.04085 7.97819 1.08074 7.95151 1.12063L6.40388 3.75347C6.35051 3.83326 6.32382 3.93963 6.32382 4.03271C6.32382 4.12579 6.35051 4.23217 6.40388 4.31195L9.79266 10.043C9.84603 10.1228 9.91274 10.2026 10.0061 10.2558C10.0995 10.309 10.1929 10.3356 10.2996 10.3356H13.3949C13.4483 10.3356 13.5017 10.3223 13.5417 10.2957C13.5817 10.2691 13.6217 10.2292 13.6484 10.1893C13.6751 10.1494 13.6884 10.0962 13.6884 10.043C13.6884 9.98984 13.6751 9.94995 13.6484 9.89676Z" fill="#343D65"/>
  <path d="M0.0532449 14.4843L5.24316 5.70815C5.26984 5.66826 5.30987 5.62837 5.34989 5.60178C5.38992 5.57518 5.44329 5.56189 5.49665 5.56189C5.55002 5.56189 5.60339 5.57518 5.64341 5.60178C5.68344 5.62837 5.72346 5.66826 5.75014 5.70815L7.29778 8.34099C7.35115 8.42078 7.37783 8.52715 7.37783 8.62023C7.37783 8.71331 7.35115 8.81969 7.29778 8.89947L3.90899 14.6305C3.85562 14.7103 3.78892 14.7901 3.69553 14.8433C3.60213 14.8965 3.50874 14.9231 3.40201 14.9231H0.293396C0.240029 14.9231 0.186661 14.9098 0.146636 14.8832C0.106611 14.8566 0.0665868 14.8167 0.0399034 14.7768C0.01322 14.7369 -0.00012207 14.6837 -0.00012207 14.6305C0.0132196 14.5774 0.0265615 14.5375 0.0532449 14.4843Z" fill="#343D65"/>
  <path d="M5.73679 14.9098H16.1166C16.17 14.9098 16.2234 14.8965 16.2634 14.8699C16.3034 14.8433 16.3434 14.8034 16.3701 14.7635C16.3968 14.7236 16.4101 14.6704 16.4101 14.6173C16.4101 14.5641 16.3968 14.5242 16.3701 14.471L14.8225 11.8381C14.7691 11.7584 14.7024 11.6786 14.609 11.6254C14.5156 11.5722 14.4222 11.5456 14.3155 11.5456H7.55126C7.44453 11.5456 7.35113 11.5722 7.25774 11.6254C7.16435 11.6786 7.09764 11.7451 7.04427 11.8381L5.49664 14.471C5.46996 14.5109 5.45661 14.5641 5.45661 14.6173C5.45661 14.6704 5.46996 14.7103 5.49664 14.7635C5.52332 14.8034 5.56335 14.8433 5.60337 14.8699C5.6434 14.8965 5.69677 14.9098 5.73679 14.9098Z" fill="#343D65"/>
  </svg>  