<svg width="16" height="18" viewBox="0 0 16 18" fill="none" xmlns="http://www.w3.org/2000/svg">
  <path fill-rule="evenodd" clip-rule="evenodd" d="M9.08723 1.04108L14.4616 3.78979C15.2411 4.20005 15.7334 4.97954 15.7334 5.8821V7.1539H13.7642V5.8821C13.7642 5.75903 13.6821 5.63595 13.559 5.5539L8.18467 2.80518C8.10261 2.76415 7.97954 2.76415 7.85646 2.80518L2.4821 5.5539C2.35902 5.59492 2.27697 5.718 2.27697 5.8821V7.1539H0.307739V5.8821C0.307739 5.02056 0.800047 4.20005 1.57953 3.78979L6.9539 1.04108C7.61031 0.712871 8.38979 0.712871 9.08723 1.04108ZM9.70261 8.918C9.70261 7.97441 8.92313 7.23595 8.02056 7.23595C7.07697 7.23595 6.33851 7.97441 6.33851 8.918C6.33851 9.86159 7.118 10.6001 8.02056 10.6001C8.92313 10.6001 9.70261 9.86159 9.70261 8.918ZM13.518 12.4462C13.6411 12.4052 13.7231 12.2821 13.7231 12.118V10.8462H15.6924V12.118C15.6924 12.9795 15.2001 13.8001 14.4206 14.2103L9.0462 16.959C8.718 17.1231 8.34877 17.2052 7.97954 17.2052C7.61031 17.2052 7.24108 17.1231 6.91287 16.959L1.57953 14.2103C0.800047 13.8001 0.307739 13.0206 0.307739 12.118V10.8462H2.27697V12.118C2.27697 12.2411 2.35902 12.3642 2.4821 12.4462L7.03595 14.7436V12.4462C5.47697 11.9949 4.36928 10.6001 4.36928 8.918C4.36928 6.90774 6.0103 5.22569 8.06159 5.22569C10.0718 5.22569 11.7539 6.86672 11.7539 8.918C11.7539 10.6001 10.6052 12.036 9.08723 12.4462V14.7436L13.518 12.4462Z" fill="#343D65"/>
  </svg>
  