<svg width="16" height="16" viewBox="0 0 16 16" fill="none" xmlns="http://www.w3.org/2000/svg">
  <path d="M0.25 1.48373H3.38653C4.45888 1.48373 5.30243 1.62906 5.9152 1.91876C6.52797 2.20943 6.963 2.65231 7.22029 3.24839C7.47757 3.84545 7.60622 4.63597 7.60622 5.62092V10.4652C7.60622 11.4727 7.47757 12.2878 7.22029 12.9123C6.963 13.5359 6.53288 14.0043 5.93091 14.3166C5.32894 14.6289 4.51289 14.785 3.48375 14.785H0.25V1.48373ZM3.41894 13.093C3.95511 13.093 4.34399 12.9997 4.58458 12.8141C4.82517 12.6285 4.97836 12.3683 5.04416 12.0344C5.10995 11.7005 5.14236 11.2056 5.14236 10.5486V5.45791C5.14236 4.86674 5.10406 4.41796 5.02746 4.11158C4.95087 3.80519 4.78982 3.57835 4.54334 3.43006C4.29685 3.28178 3.91092 3.20813 3.38555 3.20813H2.66279V13.093H3.41894Z" fill="#343D65"/>
  <path d="M9.71655 13.9474C9.11949 13.2688 8.79444 12.2563 8.73945 10.909L10.8252 10.4985C10.8576 11.3421 10.9922 11.9843 11.2279 12.4282C11.4635 12.8711 11.8328 13.093 12.3365 13.093C12.7087 13.093 12.9847 12.9811 13.1654 12.7562C13.346 12.5323 13.4364 12.2279 13.4364 11.8449C13.4364 11.3195 13.3186 10.8756 13.0829 10.5152C12.8472 10.1539 12.478 9.74928 11.9742 9.3005L10.2989 7.83927C9.78431 7.37969 9.39838 6.90637 9.14109 6.41929C8.88381 5.93222 8.75516 5.33319 8.75516 4.62124C8.75516 3.57049 9.06155 2.76034 9.67432 2.19077C10.2871 1.62219 11.1355 1.33643 12.2197 1.33643C13.3578 1.33643 14.1739 1.66245 14.6668 2.31352C15.1598 2.96459 15.4436 3.84349 15.5212 4.94923L13.4354 5.31061C13.403 4.59865 13.3068 4.05757 13.1477 3.68539C12.9886 3.3132 12.6793 3.12662 12.2197 3.12662C11.8475 3.12662 11.5549 3.24152 11.3408 3.47131C11.1277 3.7011 11.0207 4.00257 11.0207 4.37475C11.0207 4.80193 11.1081 5.15741 11.2838 5.44219C11.4586 5.72698 11.7326 6.03925 12.1048 6.37805L13.7634 7.83927C14.387 8.39803 14.8741 8.9784 15.2246 9.58037C15.5752 10.1823 15.75 10.8884 15.75 11.6986C15.75 12.3339 15.6106 12.8976 15.3317 13.3896C15.0528 13.8816 14.661 14.2685 14.1572 14.5474C13.6534 14.8262 13.073 14.9657 12.4161 14.9657C11.2121 14.9657 10.3116 14.6269 9.71458 13.9474H9.71655Z" fill="#343D65"/>
  </svg>
  