<svg width="16" height="18" viewBox="0 0 16 18" fill="none" xmlns="http://www.w3.org/2000/svg">
  <path d="M2.73852 7.44828C2.9008 7.79312 3.30649 8.48279 3.30649 8.48279L7.95168 0.794922L3.4282 3.95932C3.1645 4.14189 2.94137 4.3853 2.77909 4.66929C2.35312 5.54152 2.35312 6.55576 2.73852 7.44828Z" fill="#343D65"/>
  <path d="M0.912905 9.96357C1.01433 11.4444 1.76486 12.8237 2.94137 13.7162L7.95168 17.2052C7.95168 17.2052 4.80756 12.6817 2.17055 8.17853C1.90685 7.71198 1.72429 7.18458 1.64315 6.63689C1.60258 6.39348 1.60258 6.15006 1.64315 5.90665C1.5823 6.02836 1.44031 6.29206 1.44031 6.29206C1.17661 6.83974 0.994044 7.42799 0.892621 8.03653C0.831767 8.68564 0.831767 9.33475 0.912905 9.96357Z" fill="#343D65"/>
  <path d="M13.6922 10.5721C13.53 10.2273 13.1243 9.53759 13.1243 9.53759L8.47908 17.2052L13.0228 14.0611C13.2865 13.8785 13.5097 13.6351 13.6719 13.3511C14.0776 12.4789 14.0979 11.4646 13.6922 10.5721Z" fill="#343D65"/>
  <path d="M15.5381 8.03653C15.4367 6.55576 14.6862 5.1764 13.5097 4.28388L8.49936 0.794922C8.49936 0.794922 11.6435 5.31839 14.2805 9.82158C14.5442 10.2881 14.7268 10.8155 14.8079 11.3632C14.8485 11.6066 14.8485 11.85 14.8079 12.0935C14.8687 11.9718 15.0107 11.708 15.0107 11.708C15.2744 11.1604 15.457 10.5721 15.5584 9.98386C15.599 9.31446 15.599 8.68564 15.5381 8.03653Z" fill="#343D65"/>
  <path d="M2.77909 4.66929C2.94137 4.3853 3.14422 4.14189 3.4282 3.95932L7.95168 0.794922L3.30649 8.46251C3.30649 8.46251 2.9008 7.77283 2.73852 7.42799C2.35312 6.55576 2.35312 5.54152 2.77909 4.66929ZM0.912905 9.96357C1.01433 11.4444 1.76486 12.8237 2.94137 13.7162L7.95168 17.2052C7.95168 17.2052 4.80756 12.6817 2.17055 8.17853C1.90685 7.71198 1.72429 7.18458 1.64315 6.63689C1.60258 6.39348 1.60258 6.15006 1.64315 5.90665C1.5823 6.02836 1.44031 6.29206 1.44031 6.29206C1.17661 6.83974 0.994044 7.42799 0.892621 8.03653C0.831767 8.68564 0.831767 9.33475 0.912905 9.96357ZM13.6922 10.5721C13.53 10.2273 13.1243 9.53759 13.1243 9.53759L8.47908 17.2052L13.0228 14.0611C13.2865 13.8785 13.5097 13.6351 13.6719 13.3511C14.0776 12.4789 14.0979 11.4646 13.6922 10.5721ZM15.5179 8.05682C15.4164 6.57604 14.6659 5.19669 13.4894 4.30416L8.49936 0.794922C8.49936 0.794922 11.6435 5.31839 14.2805 9.82158C14.5442 10.2881 14.7268 10.8155 14.8079 11.3632C14.8485 11.6066 14.8485 11.85 14.8079 12.0935C14.8687 11.9718 15.0107 11.708 15.0107 11.708C15.2744 11.1604 15.457 10.5721 15.5584 9.98386C15.599 9.31446 15.599 8.68564 15.5179 8.05682Z" fill="#343D65"/>
  </svg>
  