<svg width="16" height="16" viewBox="0 0 16 16" fill="none" xmlns="http://www.w3.org/2000/svg">
  <g clip-path="url(#clip0_3244_20030)">
  <path d="M8.00035 0C3.58187 0 0 3.58187 0 8.00035C0 12.4188 3.58187 16 8.00035 16C12.4188 16 16 12.4181 16 8.00035C16 3.58256 12.4181 0 8.00035 0ZM6.54183 4.59161C6.76553 4.29104 7.20461 4.26196 7.46639 4.52997C7.58205 4.64909 7.63883 4.80215 7.63883 4.95381C7.63883 5.13942 7.55504 5.32294 7.39298 5.44345L4.09436 7.88746L6.54183 4.59161ZM11.4119 9.44362L8.11323 11.8869L10.5607 8.59178C10.7844 8.29122 11.2235 8.26144 11.4853 8.53015C11.6009 8.64927 11.6577 8.80232 11.6577 8.95399C11.6577 9.13959 11.5739 9.32312 11.4119 9.44362ZM11.4292 5.8853L3.61304 12.3683L10.0745 4.53482C10.4 4.14007 10.9776 4.07012 11.3883 4.37484C11.6459 4.56599 11.7761 4.85617 11.7761 5.14634C11.7761 5.41921 11.6612 5.69277 11.4292 5.8853Z" fill="#343D65"/>
  </g>
  <defs>
  <clipPath id="clip0_3244_20030">
  <rect width="16" height="16" fill="white"/>
  </clipPath>
  </defs>
  </svg>
  