<svg width="16" height="16" viewBox="0 0 16 16" fill="none" xmlns="http://www.w3.org/2000/svg">
  <path fill-rule="evenodd" clip-rule="evenodd" d="M7.99949 0C3.58199 0 0 3.67219 0 8.20311C0 11.8266 2.292 14.9011 5.4715 15.9859C5.8715 16.0612 6.0175 15.8079 6.0175 15.5906C6.0175 15.3958 6.01049 14.88 6.00649 14.1956C3.78099 14.6914 3.3115 13.096 3.3115 13.096C2.948 12.1486 2.4235 11.8963 2.4235 11.8963C1.697 11.3873 2.4785 11.3975 2.4785 11.3975C3.281 11.4554 3.70349 12.2429 3.70349 12.2429C4.41749 13.4964 5.576 13.1344 6.032 12.9242C6.1045 12.3941 6.3115 12.0327 6.54 11.8277C4.7635 11.6205 2.896 10.9172 2.896 7.77402C2.896 6.8784 3.2075 6.14631 3.7195 5.57264C3.637 5.36501 3.36251 4.53143 3.79751 3.40203C3.79751 3.40203 4.4695 3.18158 5.9975 4.24279C6.636 4.0608 7.32001 3.97005 8.00051 3.96647C8.68001 3.97005 9.3645 4.0608 10.0035 4.24279C11.5305 3.18158 12.201 3.40203 12.201 3.40203C12.6375 4.53143 12.363 5.36501 12.2805 5.57264C12.7935 6.14631 13.103 6.8784 13.103 7.77402C13.103 10.9248 11.2325 11.6185 9.4505 11.8215C9.7375 12.0747 9.99351 12.5751 9.99351 13.3405C9.99351 14.4371 9.9835 15.3214 9.9835 15.5906C9.9835 15.81 10.1275 16.0653 10.5335 15.9848C13.71 14.898 16 11.8256 16 8.20311C16 3.67219 12.418 0 7.99949 0Z" fill="#343D65"/>
  </svg>
  