<svg width="16" height="16" viewBox="0 0 16 16" fill="none" xmlns="http://www.w3.org/2000/svg">
  <g clip-path="url(#clip0_3250_20039)">
  <path d="M14.4123 13.62L12.7169 10.6829L8.851 12.9149L10.5464 15.8519C10.6618 16.0519 10.9522 16.0487 11.0631 15.8455L11.7887 14.5154C11.9566 14.2071 12.2829 14.0187 12.6342 14.027L14.1489 14.0635C14.3803 14.0693 14.5283 13.8193 14.4123 13.6193V13.62Z" fill="#343D65"/>
  <path d="M1.34938 13.62C1.234 13.82 1.38207 14.07 1.61283 14.0642L3.12751 14.0276C3.47878 14.0193 3.80505 14.2078 3.97299 14.5161L4.6986 15.8462C4.80949 16.0494 5.09923 16.0526 5.21525 15.8526L6.91069 12.9155L3.04482 10.6835L1.34938 13.62Z" fill="#343D65"/>
  <path d="M12.3438 10.0272C13.0547 9.61692 13.4925 8.85862 13.4925 8.03814V4.21137C13.4925 3.39089 13.0547 2.63259 12.3438 2.22235L9.0292 0.30768C8.31833 -0.10256 7.44272 -0.10256 6.73185 0.30768L3.41724 2.22107C2.70637 2.6313 2.26857 3.38961 2.26857 4.21009V8.03686C2.26857 8.85734 2.70637 9.61564 3.41724 10.0259L6.73185 11.9393C7.44272 12.3495 8.31833 12.3495 9.0292 11.9393L12.3438 10.0259V10.0272ZM7.25491 10.5682L4.34605 8.88875C3.95889 8.66504 3.71979 8.25159 3.71979 7.80417V4.44533C3.71979 3.99792 3.95825 3.58447 4.34605 3.36076L7.25491 1.68134C7.64207 1.45763 8.11962 1.45763 8.50742 1.68134L11.4163 3.36076C11.8034 3.58447 12.0425 3.99792 12.0425 4.44533V7.80417C12.0425 8.25159 11.8041 8.66504 11.4163 8.88875L8.50742 10.5682C8.12026 10.7919 7.64272 10.7919 7.25491 10.5682Z" fill="#343D65"/>
  <path d="M8.47473 4.56071C8.30359 4.48956 8.10744 4.57097 8.03693 4.74212L7.13761 6.91126C7.06646 7.08241 7.14786 7.27855 7.31901 7.34906C7.49016 7.41957 7.6863 7.33881 7.75681 7.16766L8.65614 4.99852C8.72729 4.82737 8.64588 4.63123 8.47473 4.56071Z" fill="#343D65"/>
  <path d="M5.63126 5.95553L6.43571 5.15108C6.56648 5.02031 6.56648 4.80814 6.43571 4.67674C6.30495 4.54597 6.09278 4.54597 5.96137 4.67674L4.87808 5.76003C4.77039 5.86771 4.77039 6.04335 4.87808 6.15104L5.96137 7.23433C6.09214 7.36509 6.30431 7.36509 6.43571 7.23433C6.56648 7.10356 6.56648 6.89139 6.43571 6.75999L5.63126 5.95553Z" fill="#343D65"/>
  <path d="M9.77148 4.67674C9.64071 4.54597 9.42854 4.54597 9.29714 4.67674C9.16637 4.8075 9.16637 5.01967 9.29714 5.15108L10.1016 5.95553L9.29714 6.75999C9.16637 6.89075 9.16637 7.10292 9.29714 7.23433C9.4279 7.36509 9.64007 7.36509 9.77148 7.23433L10.8548 6.15104C10.9625 6.04335 10.9625 5.86771 10.8548 5.76003L9.77148 4.67674Z" fill="#343D65"/>
  </g>
  <defs>
  <clipPath id="clip0_3250_20039">
  <rect width="16" height="16" fill="white"/>
  </clipPath>
  </defs>
  </svg>
  