<svg width="16" height="16" viewBox="0 0 16 16" fill="none" xmlns="http://www.w3.org/2000/svg">
  <path fill-rule="evenodd" clip-rule="evenodd" d="M6.805 1L8.74 1.045L8.785 1.99L9.64 2.035L9.595 2.89L8.74 2.935L8.785 3.88L9.64 3.925L9.685 6.76L10.63 6.805L10.675 7.75L11.62 7.795L11.665 8.74L12.61 8.785L12.655 9.64L13.51 9.595L13.555 7.75L14.5 7.795L14.455 14.5L9.64 14.455L9.595 9.64L8.74 9.595L8.695 8.74L6.76 8.785L6.715 9.64L5.86 9.685L5.815 14.5L1 14.455L1.045 7.75L1.99 7.795L2.035 9.64L2.89 9.595L2.935 8.74L3.88 8.695L3.925 7.75L4.87 7.705L4.915 6.76L5.86 6.715L5.905 3.88L6.76 3.835L6.715 2.89L5.86 2.845L5.905 1.99L6.76 1.945L6.805 1ZM2.935 11.17L3.88 11.215L3.835 12.07L2.89 12.025L2.935 11.17ZM11.665 11.17L12.61 11.215L12.565 12.07L11.62 12.025L11.665 11.17Z" fill="#343D65"/>
  </svg>
  