<svg width="16" height="16" viewBox="0 0 16 16" fill="none" xmlns="http://www.w3.org/2000/svg">
  <path d="M15.9179 4.95702V11.0252L10.6394 14.0591L8.01557 12.551L5.36082 14.077L0.0822754 11.0429V4.97494L5.36084 1.94101L7.98479 3.44908L10.6394 1.9231L15.9179 4.95702ZM14.7098 5.65137L10.6394 3.31183L9.19256 4.14344L10.6394 4.97494V11.0429L9.22363 11.8566L10.6394 12.6704L14.7098 10.3308V5.65137ZM6.5689 5.65137V10.3308L8.01557 11.1623L9.4313 10.3485V5.66929L7.98479 4.83779L6.5689 5.65137ZM6.80763 11.8566L5.36082 11.0252V4.95702L6.77651 4.14344L5.36082 3.32973L1.29036 5.66929V10.3485L5.36084 12.6883L6.80763 11.8566Z" fill="#343D65"/>
  </svg>
  