<svg width="16" height="16" viewBox="0 0 16 16" fill="none" xmlns="http://www.w3.org/2000/svg">
  <path
    d="M10.8189 3.26979C10.7618 3.32691 10.7079 3.38511 10.653 3.44278C10.653 3.36302 10.6578 3.2811 10.6578 3.20296C10.6578 3.12482 10.6578 3.03697 10.654 2.95506C10.5603 -0.446607 5.43298 -0.446607 5.3392 2.95506C5.3392 3.03697 5.33597 3.11673 5.33597 3.20296C5.33597 3.28919 5.33866 3.36464 5.34082 3.44278C5.28693 3.38511 5.23304 3.32691 5.17429 3.26979C5.11555 3.21266 5.05627 3.15338 4.99699 3.09679C2.52496 0.757879 -1.10035 4.38319 1.23856 6.85522C1.29533 6.9145 1.35299 6.9736 1.41155 7.03252C4.23388 9.857 7.99662 9.85701 7.99662 9.85701C7.99662 9.85701 11.7599 9.85701 14.5822 7.03468C14.6411 6.97576 14.6988 6.91666 14.7552 6.85738C17.0941 4.38535 13.4688 0.760035 10.9968 3.09895C10.9371 3.15428 10.8779 3.21122 10.8189 3.26979V3.26979Z"
    stroke="#343D65" stroke-width="0.544106" stroke-miterlimit="10" />
  <path
    d="M4.18433 7.01152C4.18433 6.24949 4.90432 5.63135 5.79246 5.63135C6.6806 5.63135 7.4006 6.24949 7.4006 7.01152"
    stroke="#343D65" stroke-width="0.395713" stroke-linejoin="round" />
  <path
    d="M6.28802 7.02087C6.6306 7.02087 6.90832 6.74315 6.90832 6.40057C6.90832 6.05799 6.6306 5.78027 6.28802 5.78027C5.94544 5.78027 5.66772 6.05799 5.66772 6.40057C5.66772 6.74315 5.94544 7.02087 6.28802 7.02087Z"
    fill="#343D65" />
  <path
    d="M8.60706 7.01152C8.60706 6.24949 9.32705 5.63135 10.2152 5.63135C11.1033 5.63135 11.8233 6.24949 11.8233 7.01152"
    stroke="#343D65" stroke-width="0.395713" stroke-linejoin="round" />
  <path
    d="M10.7109 7.02087C11.0535 7.02087 11.3312 6.74315 11.3312 6.40057C11.3312 6.05799 11.0535 5.78027 10.7109 5.78027C10.3683 5.78027 10.0906 6.05799 10.0906 6.40057C10.0906 6.74315 10.3683 7.02087 10.7109 7.02087Z"
    fill="#343D65" />
  <path
    d="M9.00547 7.82812C8.82762 8.15417 8.44284 8.38106 7.99553 8.38106C7.54823 8.38106 7.16344 8.15417 6.9856 7.82812"
    stroke="#343D65" stroke-width="0.395713" stroke-linejoin="round" />
  <path
    d="M15.702 14.5153C14.6327 15.004 13.4328 15.1291 12.2858 14.8716C11.1864 14.6279 10.1935 14.0398 9.45158 13.1928C9.52487 13.2467 9.60032 13.2925 9.67739 13.3394C10.2994 13.7171 11.0127 13.9176 11.7404 13.9193C12.3848 13.9186 13.0193 13.76 13.5883 13.4574C13.6293 13.4359 13.6708 13.4133 13.7117 13.3901L13.4186 12.8749L13.3108 12.9336C12.7951 13.2073 12.2169 13.3418 11.6333 13.3239C11.0497 13.3059 10.4809 13.1361 9.98296 12.8312C9.46801 12.5245 9.04187 12.0889 8.74655 11.5674C8.45123 11.0458 8.29692 10.4563 8.29883 9.85692V9.62842H7.70063V9.85692C7.70267 10.4562 7.54841 11.0456 7.25307 11.567C6.95773 12.0884 6.53151 12.5238 6.0165 12.8301C5.51858 13.135 4.94976 13.3049 4.36617 13.3228C3.78259 13.3408 3.2044 13.2063 2.68867 12.9325L2.58089 12.8738L2.28772 13.389C2.32867 13.4122 2.36963 13.4348 2.41113 13.4564C2.98015 13.7589 3.61462 13.9175 4.25909 13.9182C4.98659 13.9167 5.69981 13.7161 6.32153 13.3383C6.39914 13.2915 6.47459 13.243 6.54788 13.1918C5.80582 14.0386 4.81297 14.6267 3.7137 14.8705C2.56662 15.128 1.36675 15.0029 0.297484 14.5143L0 15.0306C1.19978 15.5922 2.55203 15.7396 3.84466 15.4498C5.1634 15.1576 6.34158 14.4209 7.18165 13.3631C7.37995 13.1147 7.55426 12.848 7.70225 12.5666V15.5953H8.29506V12.5564C8.44441 12.8419 8.62053 13.1125 8.82104 13.3648C9.66081 14.4224 10.8386 15.1593 12.157 15.452C13.4493 15.7407 14.8009 15.5925 16 15.0306L15.702 14.5153Z"
    fill="#343D65" />
</svg>
  
