<svg width="16" height="16" viewBox="0 0 16 16" fill="none" xmlns="http://www.w3.org/2000/svg">
  <g clip-path="url(#clip0_3252_20041)">
  <path d="M6.23295 9.53239C6.91595 9.53239 7.10193 8.78685 7.10465 8.3926C7.10519 8.30233 7.03287 8.22892 6.9426 8.22838H6.94151C6.85178 8.22838 6.77891 8.3007 6.77837 8.39043C6.77837 8.39858 6.76641 9.20611 6.23295 9.20611C6.10461 9.20611 6.00238 9.16587 5.91972 9.08322C5.6935 8.85646 5.69187 8.39967 5.69187 8.39206C5.69187 8.30233 5.62009 8.22838 5.52982 8.22783H5.52874C5.43901 8.22783 5.36614 8.30016 5.3656 8.38988C5.3656 8.41435 5.36505 8.98751 5.68752 9.31215C5.83217 9.45789 6.01543 9.53185 6.23295 9.53185V9.53239Z" fill="#343D65"/>
  <path d="M10.6039 8.3926C10.6045 8.30233 10.5322 8.22892 10.4419 8.22838H10.4408C10.3511 8.22838 10.2782 8.3007 10.2777 8.39043C10.2777 8.39858 10.2657 9.20611 9.73225 9.20611C9.60392 9.20611 9.50168 9.16587 9.41903 9.08322C9.19226 8.85537 9.19118 8.39695 9.19118 8.39206C9.19118 8.30233 9.1194 8.22892 9.02913 8.22783H9.02804C8.93831 8.22783 8.86545 8.30016 8.8649 8.38988C8.8649 8.41435 8.86436 8.98751 9.18683 9.31215C9.33148 9.45789 9.51473 9.53185 9.73225 9.53185C10.4153 9.53185 10.6012 8.78631 10.6039 8.39206V8.3926Z" fill="#343D65"/>
  <path d="M11.0749 9.95818C10.9851 9.94621 10.9036 10.0093 10.8916 10.0985C10.8845 10.1518 10.7024 11.3987 9.47286 11.3987C8.54896 11.3987 8.27489 10.7266 8.19495 10.3796L8.45488 10.1637C8.45488 9.95492 8.25096 9.74828 7.99973 9.74828C7.7485 9.74828 7.54457 9.95437 7.54457 10.1637L7.80451 10.3796C7.72457 10.7266 7.44995 11.3987 6.52659 11.3987C5.29708 11.3987 5.11491 10.1518 5.10784 10.0985C5.09588 10.0093 5.01376 9.94621 4.92513 9.95818C4.83594 9.9696 4.77286 10.0517 4.78428 10.1409C4.78646 10.1567 5.00778 11.725 6.52659 11.725C7.40101 11.725 7.8094 11.2307 7.99973 10.8049C8.19005 11.2307 8.59844 11.725 9.47286 11.725C10.9911 11.725 11.213 10.1567 11.2152 10.1409C11.2266 10.0517 11.1641 9.97014 11.0749 9.95818Z" fill="#343D65"/>
  <path d="M8.00027 0.5C3.58196 0.5 0 4.08196 0 8.50027C0 11.3166 1.45573 13.7925 3.65537 15.2183L3.92129 9.15228H3.92727C3.95283 8.66722 4.06213 8.20499 4.24049 7.77866C3.81362 7.71558 3.48571 7.34852 3.48571 6.90424C3.48571 6.41537 3.88213 6.01895 4.371 6.01895C4.69456 6.01895 4.97679 6.19296 5.13122 6.45235C5.87839 5.70518 6.91106 5.24296 8.05139 5.24296C9.12701 5.24296 10.1058 5.65461 10.841 6.32782C11.0036 6.13913 11.2434 6.01895 11.5121 6.01895C12.001 6.01895 12.3974 6.41537 12.3974 6.90424C12.3974 7.27728 12.1663 7.59595 11.8394 7.72646C12.0314 8.16747 12.1489 8.64764 12.1755 9.15282H12.1815L12.4441 15.1541C14.5889 13.719 16.0005 11.2752 16.0005 8.50082C16 4.08196 12.4186 0.5 8.00027 0.5Z" fill="#343D65"/>
  </g>
  <defs>
  <clipPath id="clip0_3252_20041">
  <rect width="16" height="16" fill="white"/>
  </clipPath>
  </defs>
  </svg>
  