<svg width="16" height="16" viewBox="0 0 16 16" fill="none" xmlns="http://www.w3.org/2000/svg">
  <g clip-path="url(#clip0_3244_20066)">
  <path d="M13.7219 15.1688C15.1826 14.5638 15.8762 12.8891 15.2712 11.4285C14.6662 9.96776 12.9916 9.27412 11.5309 9.87916C10.0702 10.4842 9.37653 12.1588 9.98157 13.6195C10.5866 15.0802 12.2612 15.7738 13.7219 15.1688Z" fill="#343D65"/>
  <path d="M14.718 3.97369V0.694641C14.718 0.524878 14.5806 0.387451 14.4108 0.387451H0.902527C0.732764 0.387451 0.595337 0.524878 0.595337 0.694641V5.37222C0.595337 5.54198 0.732764 5.67941 0.902527 5.67941H4.91418C5.18803 5.67941 5.32545 6.01085 5.13144 6.20385L0.918695 10.4176C0.798446 10.5379 0.798446 10.7319 0.918695 10.8521L4.22503 14.1585C4.34528 14.2787 4.53929 14.2787 4.65954 14.1585L14.628 4.19095C14.6856 4.13335 14.718 4.05554 14.718 3.97369Z" fill="#343D65"/>
  </g>
  <defs>
  <clipPath id="clip0_3244_20066">
  <rect width="16" height="16" fill="white"/>
  </clipPath>
  </defs>
  </svg>
  