<svg width="16" height="16" viewBox="0 0 16 16" fill="none" xmlns="http://www.w3.org/2000/svg">
  <path d="M3.87509 2.18089C3.8401 2.5801 3.88951 2.98966 3.86273 3.39513C3.83223 3.79721 3.77793 4.1972 3.70012 4.59289C3.56778 5.14978 3.22476 5.63371 2.74314 5.943C3.68986 6.55834 3.79482 7.51327 3.85036 8.48262C3.88123 9.00537 3.86685 9.5322 3.92037 10.0488C3.95944 10.4501 4.07264 10.553 4.48631 10.5674H4.98232V11.8064C3.87509 12.0163 2.78636 11.6665 2.53735 10.6292C2.46302 10.2464 2.4204 9.85817 2.40977 9.46845C2.38299 9.05272 2.39123 8.63904 2.36036 8.22331C2.27185 7.08521 2.10517 6.70038 1 6.64681V5.22884C1.09538 5.22189 1.19027 5.20884 1.284 5.18973C1.8808 5.15887 2.16896 4.96751 2.28829 4.38707C2.36024 4.05415 2.40767 3.71646 2.43029 3.37663C2.44431 2.72489 2.49238 2.07432 2.57439 1.42759C2.63697 0.588236 3.36215 -0.0452458 4.20231 0.00549413C4.46987 -0.00686767 4.77653 0.00549413 5.00082 0.00549413V1.27533C4.90031 1.29342 4.79839 1.30239 4.69622 1.30211C3.92446 1.27327 3.9327 1.53876 3.87509 2.18089ZM6.10603 5.94708V5.99236C6.1026 6.37994 5.78563 6.69141 5.39801 6.68802C5.3705 6.68806 5.34295 6.686 5.31568 6.68184H5.2643C4.83919 6.68297 4.49366 6.3393 4.49249 5.91419V5.86681C4.52861 5.43083 4.90803 5.10458 5.34453 5.13419H5.36307C5.78151 5.13754 6.11698 5.48137 6.11011 5.89977C6.11043 5.91557 6.10975 5.93136 6.10805 5.94708H6.10603ZM8.98936 5.92239C9.0275 6.33825 8.72184 6.70652 8.30607 6.74563C8.26708 6.74942 8.22786 6.75011 8.18875 6.74769C7.76696 6.78328 7.39634 6.46979 7.36144 6.04795C7.35865 6.01511 7.35801 5.9821 7.35934 5.94918C7.35732 5.92381 7.35732 5.89836 7.35934 5.87299C7.37501 5.4415 7.73658 5.10385 8.16819 5.11771C8.58982 5.08704 8.95656 5.40401 8.98726 5.82568C8.98936 5.85861 8.98936 5.88951 8.98936 5.92239ZM11.8603 5.91003C11.8336 6.3896 11.4178 6.90411 11.0083 6.68184C10.5713 6.69804 10.2038 6.35724 10.1872 5.92037V5.89359C10.2647 5.25029 11.0096 4.9322 11.5279 5.32103C11.7162 5.46226 11.8367 5.67589 11.8603 5.91003ZM15.18 5.21648V6.63037C15.131 6.65998 15.0746 6.67497 15.0174 6.6736C14.4832 6.6235 14.0095 7.01605 13.9595 7.55031C13.9551 7.59887 13.9537 7.64771 13.9554 7.69647C13.9122 8.13891 13.9225 8.58143 13.8916 9.03623C13.881 9.52356 13.8384 10.0096 13.764 10.4913C13.6492 11.3026 12.9362 11.8936 12.1176 11.8558C11.8274 11.8743 11.6421 11.8558 11.1997 11.8558V10.5942C11.422 10.5942 11.5413 10.5715 11.6916 10.5674C12.2307 10.553 12.4304 10.3781 12.4572 9.84298C12.488 9.25438 12.5086 8.66578 12.5313 8.07306C12.5022 7.22846 12.9007 6.42612 13.5911 5.93888C13.138 5.65936 12.8116 5.21414 12.6815 4.69785C12.5704 4.05984 12.5353 3.40333 12.4736 2.75713C12.4407 2.43192 12.4407 2.1068 12.4098 1.78365C12.3816 1.49117 12.122 1.2767 11.8294 1.30413H11.2038V0.0713834C12.7535 -0.17561 13.7332 0.320356 13.8278 1.73837C13.8669 2.33731 13.871 2.94029 13.906 3.53713C13.9239 3.86104 13.9742 4.18229 14.0563 4.49618C14.114 4.9286 14.508 5.23462 14.9412 5.18359C15.0223 5.18493 15.1029 5.19458 15.182 5.21236L15.18 5.21648Z" fill="#343D65"/>
  <path d="M4.52856 15.964V13.9398H5.3888C5.60512 13.9398 5.76229 13.958 5.86033 13.9944C5.95836 14.0307 6.03684 14.0954 6.09577 14.1883C6.15467 14.2813 6.18412 14.3876 6.18412 14.5073C6.18412 14.6592 6.13948 14.7846 6.0502 14.8836C5.96092 14.9825 5.82744 15.0449 5.64977 15.0707C5.73814 15.1222 5.81108 15.1788 5.86861 15.2405C5.92616 15.3022 6.00373 15.4117 6.1013 15.5691L6.34846 15.964H5.85964L5.56417 15.5236C5.45921 15.3662 5.38741 15.267 5.34877 15.226C5.31009 15.185 5.26913 15.157 5.22588 15.1418C5.1826 15.1266 5.11401 15.119 5.02013 15.119H4.93727V15.964H4.52856ZM4.93727 14.7959H5.23965C5.43574 14.7959 5.55818 14.7876 5.60695 14.771C5.65575 14.7545 5.69395 14.7259 5.72156 14.6854C5.74919 14.6449 5.76301 14.5943 5.76301 14.5335C5.76301 14.4654 5.74483 14.4104 5.70847 14.3685C5.67209 14.3266 5.62075 14.3002 5.55447 14.2891C5.52135 14.2845 5.42194 14.2822 5.25625 14.2822H4.93727V14.7959ZM6.56919 15.964V13.9398H8.0701V14.2822H6.9779V14.731H7.99415V15.072H6.9779V15.623H8.10876V15.964H6.56919ZM8.35171 15.3054L8.74935 15.2667C8.77329 15.4002 8.82185 15.4982 8.89503 15.5609C8.96823 15.6235 9.06696 15.6548 9.19123 15.6548C9.32287 15.6548 9.42206 15.6269 9.4888 15.5712C9.55554 15.5155 9.5889 15.4504 9.5889 15.3758C9.5889 15.3279 9.57486 15.2872 9.54677 15.2536C9.51871 15.22 9.46969 15.1908 9.39972 15.1659C9.35186 15.1494 9.24277 15.1199 9.07246 15.0776C8.85339 15.0233 8.69966 14.9565 8.61127 14.8774C8.48701 14.766 8.42488 14.6302 8.42488 14.47C8.42488 14.3669 8.45411 14.2705 8.51258 14.1807C8.57102 14.091 8.65524 14.0226 8.76523 13.9757C8.87525 13.9287 9.00803 13.9053 9.16359 13.9053C9.41767 13.9053 9.60892 13.961 9.73733 14.0724C9.86574 14.1838 9.93316 14.3324 9.9396 14.5184L9.53089 14.5363C9.51341 14.4323 9.4759 14.3575 9.41834 14.3119C9.36082 14.2664 9.27453 14.2436 9.15947 14.2436C9.04073 14.2436 8.94775 14.268 8.88052 14.3168C8.83727 14.3481 8.81565 14.3899 8.81565 14.4424C8.81565 14.4903 8.8359 14.5312 8.8764 14.5653C8.92795 14.6085 9.05315 14.6537 9.25198 14.7006C9.45082 14.7476 9.59787 14.7961 9.69313 14.8463C9.78842 14.8965 9.86298 14.965 9.91682 15.052C9.97068 15.139 9.99761 15.2465 9.99761 15.3744C9.99761 15.4904 9.96539 15.5991 9.90094 15.7003C9.83652 15.8016 9.74539 15.8768 9.62757 15.9261C9.50974 15.9753 9.3629 16 9.18707 16C8.93116 16 8.73463 15.9408 8.5975 15.8225C8.46033 15.7042 8.3784 15.5319 8.35171 15.3054ZM10.7973 15.964V14.2822H10.1967V13.9398H11.8053V14.2822H11.206V15.964H10.7973Z" fill="#343D65"/>
  </svg>
  