<svg width="16" height="16" viewBox="0 0 16 16" fill="none" xmlns="http://www.w3.org/2000/svg">
  <path d="M11.2595 0.5H4.38359C3.89889 0.5 3.50622 0.892785 3.50622 1.37764V2.69708C3.50622 3.16073 3.13012 3.53696 2.6666 3.53696H1.37737C0.892663 3.53696 0.5 3.92974 0.5 4.4146V7.12898C0.5 7.61384 0.892663 8.00662 1.37737 8.00662H3.00761C3.49232 8.00662 3.88498 7.61384 3.88498 7.12898V4.75572C3.88498 4.29206 4.26109 3.91583 4.72461 3.91583H11.2595C11.7442 3.91583 12.1369 3.52305 12.1369 3.0382V1.37764C12.1369 0.892785 11.7442 0.5 11.2595 0.5Z" fill="#343D65"/>
  <path d="M4.7405 15.5H11.6164C12.1011 15.5 12.4938 15.1072 12.4938 14.6224V13.3029C12.4938 12.8393 12.8699 12.463 13.3334 12.463H14.6226C15.1073 12.463 15.5 12.0703 15.5 11.5854V8.87101C15.5 8.38616 15.1073 7.99338 14.6226 7.99338H12.9924C12.5077 7.99338 12.115 8.38616 12.115 8.87101V11.2443C12.115 11.7079 11.7389 12.0842 11.2754 12.0842H4.7405C4.25579 12.0842 3.86313 12.4769 3.86313 12.9618V14.6224C3.86313 15.1072 4.25579 15.5 4.7405 15.5Z" fill="#343D65"/>
  <path d="M8.83863 6.30036H7.19448C6.70992 6.30036 6.31711 6.69329 6.31711 7.178V8.82266C6.31711 9.30737 6.70992 9.7003 7.19448 9.7003H8.83863C9.32319 9.7003 9.716 9.30737 9.716 8.82266V7.178C9.716 6.69329 9.32319 6.30036 8.83863 6.30036Z" fill="#343D65"/>
  </svg>
  