<svg width="16" height="16" viewBox="0 0 16 16" fill="none" xmlns="http://www.w3.org/2000/svg">
  <path d="M2.32733 8.49185L10.8476 1.00947C10.8476 1.00947 11.5278 0.896034 11.326 1.45432C11.1241 2.01261 8.62044 6.88816 8.62044 6.88816L13.3798 6.86147C13.3798 6.86147 13.8384 6.91485 13.6255 7.39084C13.4127 7.86683 4.93849 15 4.93849 15C4.93849 15 4.37456 15 4.515 14.5729C4.65543 14.1459 7.24464 9.15912 7.24464 9.15912L2.44143 9.11241C2.44143 9.11241 2.16715 9.02567 2.18251 8.80991C2.18415 8.74972 2.19784 8.6905 2.22273 8.63582C2.24762 8.58115 2.28321 8.53217 2.32733 8.49185Z" fill="#343D65"/>
  </svg>
  