<svg width="16" height="16" viewBox="0 0 16 16" fill="none" xmlns="http://www.w3.org/2000/svg">
  <path
    d="M7.84283 6.62678H6.89279V10.2345L7.75681 9.37269H8.70686V5.76496L7.84283 6.62678ZM7.84283 6.62678H6.89279V10.2345L7.75681 9.37269H8.70686V5.76496L7.84283 6.62678ZM0.5 0.499756V15.4997H15.4994V0.499756H0.5ZM5.75748 10.2345H4.25991V9.38813L3.42897 10.2345H1.80679V9.38316H3.28947L3.29113 6.97581L2.08689 8.17177L1.47596 7.56579L3.29884 5.76496L4.25991 6.73926V9.38813H5.75748V10.2345ZM9.67178 9.37269L8.80831 10.2345H6.89279L5.92786 9.26296V6.62678L6.79134 5.76496H8.70686L9.67178 6.7365V9.37269ZM14.5234 10.2345H13.0259V9.38813L12.1949 10.2345H10.5722V9.38316H12.0554L12.0571 6.97581L10.8529 8.17177L10.2419 7.56579L12.0648 5.76496L13.0259 6.73926V9.38813H14.5234V10.2345ZM8.70686 9.37269V5.76496L7.84283 6.62678H6.89279V10.2345L7.75681 9.37269H8.70686ZM7.84283 6.62678H6.89279V10.2345L7.75681 9.37269H8.70686V5.76496L7.84283 6.62678ZM7.84283 6.62678H6.89279V10.2345L7.75681 9.37269H8.70686V5.76496L7.84283 6.62678Z"
    fill="#343D65" />
</svg>
  